<svg id="Layer_1" data-name="Layer 1" xmlns="http://www.w3.org/2000/svg" viewBox="0 0 9567.32 5740.39"><defs><style>.cls-1{fill:#004ca2;}</style></defs><path class="cls-1" d="M5731.58,2974.94v182.21H5170.52v951.79H4737.41V3159H3866.76c-6.69-69.6-3.85-126.48,38.69-185.72q571.48-795.74,1135.41-1596.9c33.38-47.3,67.9-66.58,127.31-48.85V2974.94ZM4732,2975V2011.83l-9.07-3.92L4036.76,2975Zm188.43,1073.87v-2308c-37.08,36.91-64,77.83-94.4,116-25.4,31.89-33.64,65.57-33.57,106.27q1.64,1012.68.78,2025.36v60.35Z"/><path class="cls-1" d="M9209.56,3535,5271.24,3961.63c11.83-19.32,18.25-33.63,28-45.12,52.85-62.26,105.59-124.68,160.68-184.93,11.8-12.9,32.77-23.19,50.17-24.3q237.4-15,475.08-26,479.94-22.93,960-44.52c296.94-13.56,593.92-26.17,890.83-40.19q636.87-30.07,1273.66-61.38C9141.44,3533.66,9173.41,3535,9209.56,3535Z"/><path class="cls-1" d="M664.83,3531.67q249.2,11.1,498.39,22.25,290.82,13.41,581.61,27.42,399.32,18.73,798.63,37.33,470.85,22,941.69,44Q3923.63,3683.83,4362,3707c13.92.73,31.74,5.91,40.39,15.59,60.54,67.82,119.35,137.2,178.11,206.59,6.3,7.44,8.69,18.19,15.05,32.13L665.34,3535.58Z"/><path class="cls-1" d="M5333.49,1867.5l3890.56,427.95c0,.92-.11,1.84-.17,2.77-161.44-7.33-322.89-14.37-484.31-22.06-160-7.63-320-16-479.95-23.9q-452.25-22.25-904.53-44.17c-226.21-10.72-452.49-19.86-678.7-30.7-289.26-13.86-578.47-28.77-867.7-43.11-78.48-3.89-157-6.83-235.43-11.49-14.28-.85-33.15-3.47-41.47-12.8-63.59-71.27-125.18-144.32-187-217.14C5340.24,1887.5,5338.73,1879.57,5333.49,1867.5Z"/><path class="cls-1" d="M640,2296l3899.05-428.88c-13.31,19.93-21,34.32-31.37,46.5-51.84,61.11-103.3,122.62-157.43,181.67-12.73,13.89-34.89,25.8-53.36,26.79-263,14.17-526.18,26.41-789.31,38.92q-590.83,28.08-1181.68,55.94-468.46,22.31-936.92,45.1c-224.61,11-449.2,22.7-673.81,33.82C694.22,2296.93,673.13,2296,640,2296Z"/><path class="cls-1" d="M8223.8,2908.81c48,34.26,66,69,60.89,116.87-4.35,40.86-.9,82.54-.9,124.09l51.11,11.74v170.38H8063.44q0-115.18,0-229.75c0-97.63-4.39-102-101.44-100.38-12,.21-24.06,1.54-39.77,2.61v146l43.32,12v169.75H7649.47V3162.15l44.62-11.87V2702.16l-44.85-10.26V2515.31h236.54c75.53,0,151.16-2.34,226.51,1.33,24.58,1.2,51.05,14.13,72.09,28.41,83.91,56.95,113.79,136.31,101,237.46C8279.33,2830.22,8287.5,2879.12,8223.8,2908.81Zm-302-213.38v126.33c46.61-10.32,98.4,22.81,130.63-24.22,12.4-18.09,13.06-58.14,1.07-76.33C8022,2673.42,7969.87,2704.61,7921.8,2695.43Z"/><path class="cls-1" d="M6992.19,2718.88c-51.74-69.88-14.75-136.75-34.27-199.83h441.36c0,52.47,1.53,106-1.42,159.26-.53,9.46-19.72,17.89-35.16,30.9,10.91,27.76,23.5,60.39,36.52,92.85,40.64,101.35,81.76,202.51,122,304,11.59,29.25,18.24,62.26,64.3,50.23v176.83H7277.22c7.24-61.39-22.68-123.87,16.52-184.11,3-4.66-15.51-33.93-25-34.44a1710.38,1710.38,0,0,0-180.16-.11c-10.1.52-28.43,29.77-27.41,30.85,37,38.61,11.08,85.48,17.74,127.53,2.83,17.89.47,36.61.47,59.14h-308V3160.27c43.13,4,55.56-26,68.43-58.91C6891.29,2969.77,6944.29,2838.76,6992.19,2718.88Zm241.06,237.21-55.09-131.84-53.34,131.84Z"/><path class="cls-1" d="M9027.63,2804.22H8816.36c-1.61-11.19-4.29-22.7-4.75-34.3-2.52-63.13-13.15-73.4-77.77-73.57-12.33,0-24.66-.16-37,0-52.35.83-65.93,15.5-66,71.09-.08,55.35,13.57,70.26,66.11,70.78,43.15.44,86.73,3.92,129.35-.85,55.73-6.23,92.53,16.67,133.42,52.78,57.38,50.66,71,106.55,75.32,180.53,6,103.55-21.58,182.23-105.6,240.66-16.4,11.4-36.9,23.3-55.76,23.73-101.66,2.32-203.42,2.12-305.09.13-17.76-.35-35.92-12.11-52.62-21-9.12-4.85-14.63-16.07-23.37-22.11-83.91-58-104.88-138.12-79.06-237.28,67.08,0,138.52,0,210,0,1.5,2.71,3.41,5.26,4.34,8.12,9.5,29.14,11.35,75.77,29.85,83.72,34,14.63,79.06,13.09,117.3,6.16,44.3-8,37.18-50.18,35.8-83.6-1.25-30.31-17.53-49.17-49.06-49.56-63.18-.77-126.45,1.46-189.5-1.38-19-.86-39.64-11.3-55.87-22.61-89-62-113.56-145.07-115-255.1-1.46-113.05,76.43-155.4,134.52-219.46,6.21-6.85,23-5.58,34.86-5.63,98.63-.4,197.29-1.59,295.86.88,20.4.51,41.37,13.6,60.3,24.09,11.66,6.46,18.57,21.16,30,28.46C9047.37,2626.85,9038,2713.88,9027.63,2804.22Z"/><path class="cls-1" d="M6696.33,2824.62H6472.72c0-23.76.23-44.84-.1-65.91-.17-10.72,2.24-23.6-2.68-31.8-32.61-54.38-86.22-26.65-130.58-28.58-30.92-1.35-46.6,24.47-46.51,57q.48,171,.08,341.93c0,40.15,20.23,59.23,59.93,58.67,7.7-.11,15.4,0,23.11,0,94.76.13,94.73.13,96.85-94.48.17-7.53,1-15.05,1.85-26.41H6696c0,54.14,5.05,108.35-2.32,160.81-3.25,23.19-32.49,42.26-48.52,64.23-45.67,62.61-105,85-183,77.62-73.29-6.93-147.84.72-221.61-2.8-23.11-1.1-47.7-14.3-67.81-27.68-86.63-57.62-109.83-138.89-102.33-241.43,9.07-124.1,3-249.38,1.53-374.12-.38-31.59,11.51-52.83,30.37-77.56,61.36-80.43,137.49-116.06,238.65-99.59,30,4.89,61.49.76,92.3.76,148.38,0,155.27,3.06,248.49,115.93,6.51,7.89,13.68,18.36,13.91,27.8C6697,2712.64,6696.33,2766.29,6696.33,2824.62Z"/><path class="cls-1" d="M2435.58,2948.24c61.61,36.36,38.66,99.65,42.1,155.92,1.42,23.3-7.53,51.13,30.15,55.84,4.58.57,10.49,14.41,10.68,22.22,1,42.67.5,85.38.5,130.61H2283.49c0-27.57,0-55.8,0-84,0-50.82.69-101.66-.25-152.46-.88-47.58-13.53-53.27-79.2-55.51-40.8-1.39-50.83,15.56-47.52,51.75,2.22,24.3.42,49,.42,76.08l43.1,14.1v150.3H1923.67v-150l40.18-13.76v-385L1922.43,2752V2598.57h119c94,0,188-1.79,281.83,1.28,23,.76,47,14.91,68,27.2,100.95,58.95,92.71,157.08,84.3,252.2C2473.6,2902,2450.89,2923,2435.58,2948.24ZM2149.82,2754c8.57,45.47,4.28,91.21,23.75,106.3,18.78,14.55,65.3,4.28,93.15-8.85,12.43-5.87,20-51.47,10.61-68.53C2251.59,2736,2203.38,2766.53,2149.82,2754Z"/><path class="cls-1" d="M1333.11,2599.88h367.34c23,70.78,12.6,145.44-24.84,168.12,48.56,120.82,96.46,242.4,147,362.86,6.42,15.28,26.83,24.7,46.47,41.82V3312.5H1591.79c8.38-55.15,17.75-107.37,23.09-160,1-10.29-13-31.37-20.93-31.83a1303.47,1303.47,0,0,0-152.47,0c-8.68.52-23.77,21.05-23,31.35,4.08,53.18,12.37,106,19.5,161.49H1164V3182c25.1-32,47.71-51.46,58.33-76.08,40.19-93.2,76.86-187.93,114-282.43,10.21-26,18.83-45.77,1.12-80.63C1318.32,2705.28,1333.11,2650.44,1333.11,2599.88Zm183.28,267.91L1469,2983.27h95.66Z"/><path class="cls-1" d="M3770.68,2850.85H3592c-2.53-4.5-5-7-5.23-9.61-5.45-76.53-58-109.5-131-80.52-35.21,14-35.17,47.65-27.24,74.73,5,17.09,27.43,38.75,44.23,40.86,45.54,5.69,92.36,4.15,138.43,1.43,36.94-2.18,61.62,12.72,89.59,35.8,59.44,49.06,73.34,107.26,79.5,183,8.13,99.83-44.93,153.14-107.4,208-8.95,7.86-25.08,10.34-37.94,10.47-84.75.9-169.56,1.7-254.27-.54-17.6-.46-35.37-12.83-52.08-21.6-7.8-4.1-12.4-13.93-19.89-19.07-72.68-49.94-88.91-119.69-69-205.91H3418.2c2.17,3,5.18,5.2,5.48,7.75,8.73,74.66,56.9,104.06,130.55,78.22,36.5-12.8,36.33-46.18,28.72-73.35-4.71-16.83-26.52-38.33-43-40.57-42.37-5.77-86.25-4.59-129.14-1.27-41.72,3.24-69.66-12.93-101.64-39.32-58.49-48.27-89.56-102.18-75-178.41a22.16,22.16,0,0,0,0-9.21c-25.25-101,50.85-148.43,109.54-204.14,8.27-7.86,25.54-8.5,38.68-8.62,80.13-.74,160.36-2.41,240.37.9,23.08,1,45.61,17.09,68.15,26.84,3.94,1.71,6.17,7,10,9.49C3779.72,2687.4,3788.65,2762.5,3770.68,2850.85Z"/><path class="cls-1" d="M803.86,3167.78v144.81h-278c0-44.2-2.9-87.21,1.63-129.43,1.51-14.11,22-26.18,40.4-46.41V2766.59c-46-18.44-57-70.37-34.87-168,115.41,0,232.88,9,348.24-2.73,99.92-10.16,139.87,59.38,195.21,112.66,6.12,5.9,5.93,19.87,6.12,30.14.68,36.93-3.5,74.36,1.15,110.7,7.37,57.72-16.14,96.43-55.74,136.68-40.16,40.82-80.35,62.95-137.24,54.58-18.08-2.66-36.88-.42-55.35-.41-76.65,0-78.48.18-72.75,75.44,1.4,18.49,19,35.75,29.15,53.58ZM761.29,2822c0,62.51,0,62.51,53.64,62.64,61.82.15,76.12-12,76.05-64.52-.07-51.74-12.1-62-72.75-62C761.28,2758.07,761.28,2758.07,761.29,2822Z"/><path class="cls-1" d="M2980.44,2763.94q0,129,0,257.9c0,29.29,1.69,58.71-.46,87.85-2.28,31,4.43,52,43.14,49.41v152.49H2746.88V3162.71c37.53-2,44.26-25.39,43.36-61.05-2.53-100.15-.23-200.42-1.65-300.62-.2-14-10.55-27.9-16.2-41.84-11.14,8.6-22.19,17.32-33.46,25.75-6.64,5-13.52,13.3-20.48,13.51-42.69,1.26-85.43.63-131.06.63V2602.22h594v197c-43.05,0-85.6.84-128.06-.76-7.87-.29-15.4-10.4-23-16.07-12.53-9.31-25-18.7-37.52-28.06Z"/></svg>